<svg xmlns="http://www.w3.org/2000/svg" xmlns:xlink="http://www.w3.org/1999/xlink" width="500" zoomAndPan="magnify" viewBox="0 0 375 374.999991" height="500" preserveAspectRatio="xMidYMid meet" version="1.0"><defs><clipPath id="b00e8debbc"><path d="M 24.3125 37.5 L 350.5625 37.5 L 350.5625 339.75 L 24.3125 339.75 Z M 24.3125 37.5 " clip-rule="nonzero"/></clipPath></defs><path fill="#fff558" d="M 125.570312 44.121094 L 31.34375 169.964844 L 93.210938 314.515625 L 249.300781 333.191406 L 343.496094 207.347656 L 281.664062 62.796875 Z M 125.570312 44.121094 " fill-opacity="1" fill-rule="nonzero"/><g clip-path="url(#b00e8debbc)"><path fill="#231f20" d="M 349.570312 204.746094 L 287.703125 60.195312 C 287.476562 59.660156 287.1875 59.167969 286.828125 58.714844 C 286.472656 58.257812 286.0625 57.859375 285.597656 57.511719 C 285.136719 57.164062 284.636719 56.882812 284.101562 56.667969 C 283.5625 56.453125 283.007812 56.308594 282.433594 56.238281 L 126.34375 37.5625 L 125.570312 37.5 C 124.527344 37.5 123.539062 37.738281 122.605469 38.207031 C 121.671875 38.675781 120.890625 39.328125 120.269531 40.167969 L 26.074219 166.011719 C 25.726562 166.476562 25.445312 166.976562 25.230469 167.515625 C 25.015625 168.054688 24.875 168.609375 24.808594 169.1875 C 24.742188 169.761719 24.75 170.335938 24.832031 170.910156 C 24.917969 171.484375 25.074219 172.035156 25.300781 172.570312 L 87.136719 317.121094 C 87.367188 317.652344 87.664062 318.144531 88.023438 318.597656 C 88.386719 319.050781 88.796875 319.453125 89.261719 319.800781 C 89.726562 320.144531 90.230469 320.425781 90.769531 320.644531 C 91.304688 320.859375 91.863281 321.003906 92.4375 321.074219 L 248.496094 339.75 L 249.300781 339.75 C 250.335938 339.75 251.320312 339.519531 252.246094 339.054688 C 253.175781 338.589844 253.949219 337.945312 254.570312 337.113281 L 348.796875 211.269531 C 349.140625 210.808594 349.421875 210.308594 349.632812 209.773438 C 349.847656 209.238281 349.988281 208.683594 350.054688 208.109375 C 350.121094 207.539062 350.117188 206.964844 350.03125 206.394531 C 349.949219 205.824219 349.796875 205.273438 349.570312 204.746094 Z M 343.496094 207.347656 L 249.300781 333.191406 L 93.210938 314.515625 L 31.34375 169.964844 L 125.570312 44.121094 L 281.664062 62.796875 Z M 343.496094 207.347656 " fill-opacity="1" fill-rule="nonzero"/></g><path fill="#231f20" d="M 175.835938 264.210938 C 152.566406 260.835938 131.933594 249.105469 117.699219 231.167969 C 103.460938 213.230469 97.324219 191.050781 100.535156 168.96875 L 109.277344 170.253906 C 103.363281 210.949219 133.796875 249.167969 177.121094 255.46875 C 220.441406 261.769531 260.515625 233.804688 266.429688 193.109375 L 275.171875 194.363281 C 271.957031 216.476562 259.808594 235.925781 241.007812 249.105469 C 222.207031 262.28125 199.132812 267.585938 175.835938 264.210938 Z M 175.835938 264.210938 " fill-opacity="1" fill-rule="nonzero"/><path fill="#231f20" d="M 168.914062 105.085938 C 169.5 105.171875 170.078125 105.316406 170.644531 105.519531 C 171.210938 105.71875 171.765625 105.976562 172.304688 106.292969 C 172.847656 106.605469 173.375 106.976562 173.882812 107.402344 C 174.394531 107.828125 174.886719 108.308594 175.363281 108.839844 C 175.839844 109.371094 176.296875 109.957031 176.730469 110.589844 C 177.167969 111.222656 177.582031 111.90625 177.972656 112.632812 C 178.363281 113.363281 178.730469 114.136719 179.074219 114.953125 C 179.417969 115.769531 179.738281 116.628906 180.027344 117.527344 C 180.320312 118.425781 180.585938 119.359375 180.824219 120.328125 C 181.0625 121.296875 181.273438 122.300781 181.457031 123.332031 C 181.636719 124.363281 181.792969 125.421875 181.914062 126.507812 C 182.039062 127.59375 182.132812 128.699219 182.199219 129.824219 C 182.265625 130.953125 182.296875 132.097656 182.304688 133.253906 C 182.308594 134.414062 182.285156 135.582031 182.226562 136.757812 C 182.171875 137.9375 182.089844 139.121094 181.972656 140.308594 C 181.859375 141.496094 181.714844 142.679688 181.542969 143.863281 C 181.371094 145.050781 181.167969 146.226562 180.941406 147.398438 C 180.710938 148.566406 180.453125 149.726562 180.171875 150.871094 C 179.886719 152.015625 179.578125 153.140625 179.242188 154.25 C 178.90625 155.359375 178.546875 156.445312 178.160156 157.503906 C 177.777344 158.566406 177.371094 159.601562 176.941406 160.605469 C 176.515625 161.609375 176.066406 162.578125 175.59375 163.515625 C 175.125 164.453125 174.636719 165.351562 174.132812 166.214844 C 173.628906 167.074219 173.105469 167.894531 172.570312 168.671875 C 172.03125 169.449219 171.484375 170.179688 170.921875 170.867188 C 170.355469 171.550781 169.785156 172.1875 169.199219 172.773438 C 168.617188 173.359375 168.027344 173.894531 167.425781 174.378906 C 166.828125 174.859375 166.226562 175.289062 165.617188 175.664062 C 165.007812 176.039062 164.398438 176.355469 163.789062 176.617188 C 163.175781 176.878906 162.566406 177.085938 161.957031 177.230469 C 161.351562 177.378906 160.746094 177.46875 160.144531 177.5 C 159.542969 177.53125 158.949219 177.503906 158.363281 177.417969 C 157.777344 177.332031 157.203125 177.1875 156.636719 176.988281 C 156.070312 176.785156 155.515625 176.527344 154.972656 176.210938 C 154.429688 175.898438 153.90625 175.527344 153.394531 175.101562 C 152.882812 174.675781 152.390625 174.195312 151.914062 173.664062 C 151.4375 173.132812 150.984375 172.550781 150.546875 171.914062 C 150.113281 171.28125 149.699219 170.601562 149.304688 169.871094 C 148.914062 169.140625 148.546875 168.367188 148.203125 167.550781 C 147.859375 166.734375 147.542969 165.875 147.25 164.976562 C 146.957031 164.078125 146.691406 163.144531 146.453125 162.175781 C 146.214844 161.207031 146.003906 160.203125 145.824219 159.171875 C 145.640625 158.140625 145.488281 157.082031 145.363281 155.996094 C 145.238281 154.910156 145.144531 153.804688 145.078125 152.679688 C 145.015625 151.550781 144.980469 150.410156 144.976562 149.25 C 144.96875 148.09375 144.996094 146.925781 145.050781 145.746094 C 145.105469 144.566406 145.191406 143.382812 145.304688 142.195312 C 145.417969 141.011719 145.5625 139.824219 145.734375 138.640625 C 145.910156 137.457031 146.109375 136.277344 146.339844 135.109375 C 146.566406 133.9375 146.824219 132.78125 147.109375 131.632812 C 147.390625 130.488281 147.703125 129.363281 148.039062 128.253906 C 148.375 127.144531 148.734375 126.0625 149.117188 125 C 149.5 123.9375 149.90625 122.90625 150.335938 121.898438 C 150.765625 120.894531 151.214844 119.925781 151.683594 118.988281 C 152.152344 118.050781 152.640625 117.152344 153.144531 116.289062 C 153.652344 115.429688 154.171875 114.609375 154.710938 113.832031 C 155.246094 113.054688 155.796875 112.324219 156.359375 111.640625 C 156.921875 110.953125 157.496094 110.316406 158.078125 109.730469 C 158.660156 109.144531 159.253906 108.609375 159.851562 108.125 C 160.449219 107.644531 161.054688 107.214844 161.660156 106.839844 C 162.269531 106.464844 162.878906 106.148438 163.488281 105.886719 C 164.101562 105.625 164.710938 105.417969 165.320312 105.273438 C 165.929688 105.125 166.535156 105.035156 167.132812 105.003906 C 167.734375 104.972656 168.328125 105 168.914062 105.085938 Z M 168.914062 105.085938 " fill-opacity="1" fill-rule="nonzero"/><path fill="#231f20" d="M 226.957031 113.015625 C 227.546875 113.097656 228.121094 113.238281 228.691406 113.4375 C 229.257812 113.636719 229.8125 113.890625 230.355469 114.203125 C 230.898438 114.515625 231.425781 114.882812 231.941406 115.304688 C 232.453125 115.726562 232.949219 116.203125 233.429688 116.734375 C 233.90625 117.265625 234.363281 117.84375 234.804688 118.476562 C 235.242188 119.109375 235.660156 119.789062 236.054688 120.515625 C 236.449219 121.242188 236.824219 122.011719 237.171875 122.828125 C 237.519531 123.644531 237.839844 124.5 238.136719 125.398438 C 238.433594 126.292969 238.707031 127.226562 238.949219 128.195312 C 239.191406 129.164062 239.410156 130.164062 239.597656 131.195312 C 239.785156 132.226562 239.941406 133.285156 240.070312 134.367188 C 240.203125 135.453125 240.300781 136.558594 240.371094 137.683594 C 240.441406 138.8125 240.484375 139.953125 240.496094 141.113281 C 240.503906 142.269531 240.488281 143.4375 240.4375 144.617188 C 240.390625 145.796875 240.3125 146.980469 240.203125 148.167969 C 240.09375 149.355469 239.957031 150.539062 239.789062 151.726562 C 239.625 152.910156 239.429688 154.089844 239.207031 155.261719 C 238.980469 156.433594 238.730469 157.59375 238.453125 158.738281 C 238.175781 159.886719 237.871094 161.011719 237.542969 162.125 C 237.210938 163.234375 236.859375 164.320312 236.480469 165.382812 C 236.101562 166.449219 235.699219 167.484375 235.277344 168.488281 C 234.855469 169.496094 234.410156 170.46875 233.945312 171.410156 C 233.480469 172.347656 232.996094 173.25 232.496094 174.113281 C 231.996094 174.976562 231.480469 175.800781 230.945312 176.582031 C 230.414062 177.359375 229.867188 178.09375 229.308594 178.78125 C 228.75 179.46875 228.179688 180.109375 227.597656 180.699219 C 227.019531 181.289062 226.429688 181.828125 225.835938 182.3125 C 225.238281 182.800781 224.636719 183.230469 224.03125 183.609375 C 223.425781 183.984375 222.816406 184.308594 222.207031 184.574219 C 221.597656 184.835938 220.988281 185.046875 220.378906 185.195312 C 219.773438 185.347656 219.167969 185.4375 218.566406 185.472656 C 217.96875 185.507812 217.375 185.480469 216.789062 185.398438 C 216.199219 185.316406 215.625 185.175781 215.054688 184.976562 C 214.488281 184.78125 213.933594 184.523438 213.390625 184.210938 C 212.847656 183.902344 212.320312 183.53125 211.804688 183.109375 C 211.292969 182.6875 210.796875 182.210938 210.316406 181.679688 C 209.839844 181.152344 209.378906 180.570312 208.941406 179.9375 C 208.503906 179.308594 208.085938 178.628906 207.691406 177.902344 C 207.292969 177.171875 206.921875 176.402344 206.574219 175.585938 C 206.226562 174.769531 205.90625 173.914062 205.609375 173.019531 C 205.308594 172.121094 205.039062 171.1875 204.796875 170.21875 C 204.554688 169.253906 204.335938 168.253906 204.148438 167.21875 C 203.960938 166.1875 203.804688 165.132812 203.675781 164.046875 C 203.542969 162.960938 203.445312 161.855469 203.375 160.730469 C 203.300781 159.605469 203.261719 158.460938 203.25 157.304688 C 203.238281 156.144531 203.257812 154.976562 203.308594 153.796875 C 203.355469 152.621094 203.433594 151.4375 203.542969 150.25 C 203.652344 149.0625 203.789062 147.875 203.957031 146.6875 C 204.121094 145.503906 204.316406 144.324219 204.539062 143.152344 C 204.761719 141.980469 205.015625 140.824219 205.292969 139.675781 C 205.570312 138.53125 205.875 137.402344 206.203125 136.292969 C 206.53125 135.179688 206.886719 134.09375 207.265625 133.03125 C 207.644531 131.96875 208.046875 130.933594 208.46875 129.925781 C 208.890625 128.917969 209.335938 127.945312 209.800781 127.007812 C 210.265625 126.066406 210.746094 125.164062 211.25 124.300781 C 211.75 123.4375 212.265625 122.613281 212.800781 121.835938 C 213.332031 121.054688 213.878906 120.320312 214.4375 119.632812 C 214.996094 118.945312 215.566406 118.304688 216.148438 117.714844 C 216.726562 117.125 217.316406 116.585938 217.910156 116.101562 C 218.507812 115.617188 219.109375 115.183594 219.714844 114.804688 C 220.320312 114.429688 220.929688 114.109375 221.539062 113.84375 C 222.148438 113.578125 222.757812 113.371094 223.363281 113.21875 C 223.972656 113.070312 224.578125 112.976562 225.175781 112.941406 C 225.777344 112.910156 226.371094 112.933594 226.957031 113.015625 Z M 226.957031 113.015625 " fill-opacity="1" fill-rule="nonzero"/></svg>